<svg width="30" height="30" viewBox="0 0 30 30" fill="none" xmlns="http://www.w3.org/2000/svg">
<path d="M15.8839 5.36611C15.3957 4.87796 14.6043 4.87796 14.1161 5.36611L5.36611 14.1161C4.87796 14.6043 4.87796 15.3957 5.36611 15.8839C5.85428 16.372 6.64572 16.372 7.13389 15.8839L7.5 15.5177V23.75C7.5 24.4404 8.05965 25 8.75 25H11.25C11.9404 25 12.5 24.4404 12.5 23.75V21.25C12.5 20.5596 13.0596 20 13.75 20H16.25C16.9404 20 17.5 20.5596 17.5 21.25V23.75C17.5 24.4404 18.0596 25 18.75 25H21.25C21.9404 25 22.5 24.4404 22.5 23.75V15.5177L22.8661 15.8839C23.3543 16.372 24.1457 16.372 24.6339 15.8839C25.122 15.3957 25.122 14.6043 24.6339 14.1161L15.8839 5.36611Z" fill="#6581F0"/>
</svg>
